<svg width="29" height="35" viewBox="0 0 29 35" fill="none" xmlns="http://www.w3.org/2000/svg">
<path d="M28.3922 27.2756C27.8716 28.4984 27.2552 29.624 26.5412 30.6589C25.5679 32.0696 24.7709 33.0461 24.1568 33.5884C23.2047 34.4785 22.1846 34.9344 21.0923 34.9603C20.3081 34.9603 19.3624 34.7334 18.2616 34.2732C17.1571 33.8152 16.1421 33.5884 15.2141 33.5884C14.2407 33.5884 13.1968 33.8152 12.0803 34.2732C10.962 34.7334 10.0612 34.9732 9.37239 34.997C8.32491 35.0424 7.28083 34.5735 6.23865 33.5884C5.57345 32.9986 4.74147 31.9875 3.74474 30.5552C2.67537 29.0256 1.7962 27.2518 1.10742 25.2297C0.369779 23.0455 0 20.9305 0 18.8828C0 16.5372 0.498568 14.5142 1.49718 12.8189C2.28201 11.4572 3.3261 10.383 4.63287 9.59451C5.93961 8.80594 7.35159 8.40408 8.87214 8.37841C9.70415 8.37841 10.7952 8.64002 12.1511 9.1542C13.5031 9.67012 14.3712 9.93174 14.7518 9.93174C15.0364 9.93174 16.0008 9.62581 17.6357 9.01594C19.1818 8.45034 20.4866 8.21611 21.5556 8.30839C24.4522 8.54604 26.6283 9.70683 28.0756 11.7981C25.485 13.3938 24.2035 15.6288 24.229 18.4959C24.2524 20.7291 25.0493 22.5875 26.6156 24.0631C27.3254 24.748 28.1181 25.2773 29 25.6532C28.8087 26.217 28.6068 26.7571 28.3922 27.2756ZM21.749 0.700208C21.749 2.45059 21.1199 4.08494 19.866 5.59768C18.3529 7.39603 16.5227 8.43519 14.538 8.27121C14.5115 8.05116 14.4981 7.82965 14.4981 7.60794C14.4981 5.92758 15.2177 4.12922 16.4955 2.65885C17.1335 1.91436 17.9449 1.29534 18.9289 0.801535C19.9107 0.315095 20.8394 0.0460791 21.7128 0C21.7383 0.233992 21.749 0.468043 21.749 0.700208Z" fill="#4D4D4D"/>
</svg>
