<svg width="31" height="35" viewBox="0 0 31 35" fill="none" xmlns="http://www.w3.org/2000/svg">
<path d="M1.62528 0L18.1888 16.3698L22.73 11.8491L2.65303 0.309313C2.31841 0.115993 1.95989 0.00892269 1.62528 0ZM0.239012 0.761387C0.0896297 1.02609 0 1.33838 0 1.68933V33.501C0 33.7568 0.053778 33.9858 0.143407 34.191L17.0893 17.4405L0.239012 0.761387ZM24.1163 12.6343L19.2643 17.4405L24.1163 22.223L30.0437 18.8443C30.8863 18.3595 31.0058 17.7439 30.9998 17.4167C30.9908 16.8754 30.6473 16.3698 30.0676 16.0605C29.5627 15.7899 25.8132 13.6157 24.1163 12.6343ZM18.1888 18.5112L1.48187 35C1.75972 34.9851 2.06147 34.9256 2.34231 34.7621C2.99661 34.3843 16.2289 26.7675 16.2289 26.7675L22.7539 23.032L18.1888 18.5112Z" fill="#4D4D4D"/>
</svg>
